<?xml version="1.0" encoding="UTF-8"?>
<svg width="700pt" height="700pt" version="1.1" viewBox="0 0 700 600" xmlns="http://www.w3.org/2000/svg" xmlns:xlink="http://www.w3.org/1999/xlink">
 <g>
  <path d="m137.2 117.6c-27.633 0-50.398 22.77-50.398 50.398v224c0 27.633 22.77 50.398 50.398 50.398h425.6c27.633 0 50.398-22.77 50.398-50.398v-224c0-27.633-22.77-50.398-50.398-50.398zm0 33.602h425.6c9.5977 0 16.801 7.2031 16.801 16.801v224c0 9.5977-7.2031 16.801-16.801 16.801h-425.6c-9.5977 0-16.801-7.2031-16.801-16.801v-224c0-9.5977 7.2031-16.801 16.801-16.801zm32.727 27.824c-4.4531 0.21094-8.6406 2.1797-11.641 5.4805-3 3.2969-4.5664 7.6562-4.3516 12.109 0.21484 4.4531 2.1914 8.6367 5.4922 11.633l81.199 74.375-80.676 68.426c-3.4102 2.8789-5.5391 6.9922-5.918 11.441-0.37891 4.4453 1.0273 8.8594 3.9062 12.273 2.875 3.4102 6.9922 5.5391 11.438 5.918 4.4492 0.375 8.8633-1.0273 12.273-3.9062l84.176-71.227 48.301 44.273c20.098 18.379 51.297 18.34 71.398 0l48.648-44.273 84.176 71.227h0.003906c3.4102 2.8789 7.8242 4.2812 12.273 3.9062 4.4453-0.37891 8.5625-2.5078 11.438-5.918 2.8789-3.4141 4.2852-7.8281 3.9062-12.273-0.37891-4.4492-2.5078-8.5625-5.918-11.441l-80.676-68.426 81.199-74.199c3.2969-3.0156 5.2578-7.2188 5.457-11.684 0.19922-4.4609-1.3867-8.8203-4.4023-12.117-3.0195-3.2969-7.2227-5.2578-11.684-5.4531-4.4648-0.19922-8.8242 1.3867-12.121 4.4062l-154.88 141.4c-7.793 7.1094-18.309 7.1016-26.074 0l-154.7-141.4c-3.3047-3.1094-7.7188-4.75-12.25-4.5508z"/>
  <use x="70" y="644" xlink:href="#t"/>
  <use x="90.550781" y="644" xlink:href="#f"/>
  <use x="104.359375" y="644" xlink:href="#a"/>
  <use x="123.347656" y="644" xlink:href="#e"/>
  <use x="142.242188" y="644" xlink:href="#d"/>
  <use x="155.628906" y="644" xlink:href="#a"/>
  <use x="174.617188" y="644" xlink:href="#j"/>
  <use x="204.410156" y="644" xlink:href="#i"/>
  <use x="224.453125" y="644" xlink:href="#c"/>
  <use x="252.453125" y="644" xlink:href="#h"/>
  <use x="274.121094" y="644" xlink:href="#c"/>
  <use x="292.375" y="644" xlink:href="#e"/>
  <use x="321.015625" y="644" xlink:href="#s"/>
  <use x="341.179688" y="644" xlink:href="#b"/>
  <use x="360.417969" y="644" xlink:href="#g"/>
  <use x="372.601562" y="644" xlink:href="#c"/>
  <use x="390.851562" y="644" xlink:href="#e"/>
  <use x="70" y="672" xlink:href="#g"/>
  <use x="82.183594" y="672" xlink:href="#f"/>
  <use x="95.992188" y="672" xlink:href="#b"/>
  <use x="115.226562" y="672" xlink:href="#r"/>
  <use x="154.152344" y="672" xlink:href="#d"/>
  <use x="167.535156" y="672" xlink:href="#q"/>
  <use x="187.46875" y="672" xlink:href="#a"/>
  <use x="216.207031" y="672" xlink:href="#p"/>
  <use x="239.640625" y="672" xlink:href="#b"/>
  <use x="258.878906" y="672" xlink:href="#o"/>
  <use x="278.8125" y="672" xlink:href="#n"/>
  <use x="308.492188" y="672" xlink:href="#m"/>
  <use x="329.015625" y="672" xlink:href="#f"/>
  <use x="342.820312" y="672" xlink:href="#b"/>
  <use x="362.058594" y="672" xlink:href="#l"/>
  <use x="371.65625" y="672" xlink:href="#a"/>
  <use x="390.648438" y="672" xlink:href="#k"/>
  <use x="407.242188" y="672" xlink:href="#d"/>
 </g>
</svg>
