<?xml version="1.0" encoding="UTF-8"?>
<svg width="700pt" height="700pt" version="1.1" viewBox="0 0 700 600" xmlns="http://www.w3.org/2000/svg" xmlns:xlink="http://www.w3.org/1999/xlink">
 <g>
  <path d="m507.5 271.25c-3.1055 0.011719-6.2031 0.24609-9.2734 0.69922 0.34766-3.1367 0.52344-6.293 0.52344-9.4492-0.011719-27.449-11.742-53.59-32.242-71.844s-47.82-26.887-75.086-23.727c-27.27 3.1602-51.891 17.812-67.672 40.27-8.1953-3.9219-17.164-5.9531-26.25-5.9492-12.664 0.082031-24.992 4.0586-35.324 11.383-10.328 7.3242-18.156 17.645-22.426 29.566-9.4219-3.9414-19.535-5.9648-29.75-5.9492-28.133 0-54.133 15.008-68.199 39.375-14.066 24.367-14.066 54.383 0 78.75 14.066 24.367 40.066 39.375 68.199 39.375h297.5c21.883 0 42.102-11.676 53.043-30.625 10.941-18.949 10.941-42.301 0-61.25-10.941-18.949-31.16-30.625-53.043-30.625zm0 105h-297.5c-19.172 0.125-37.293-8.7344-48.973-23.938-11.676-15.203-15.562-35-10.5-53.488 5.0664-18.492 18.492-33.543 36.289-40.676 17.793-7.1328 37.902-5.5234 54.332 4.3516 2.5039 1.4883 5.5859 1.6367 8.2188 0.38672 2.6328-1.2461 4.4727-3.7188 4.9062-6.5977 1.4961-10.406 6.6836-19.93 14.621-26.82 7.9375-6.8945 18.094-10.699 28.605-10.719 8.6758-0.039062 17.156 2.5547 24.324 7.4375 2.0312 1.3555 4.5391 1.8008 6.9141 1.2266 2.3516-0.53906 4.3789-2.0273 5.5977-4.1133 12.887-21.906 35.551-36.246 60.863-38.508 25.312-2.2656 50.16 7.8242 66.727 27.094 16.57 19.27 22.82 45.352 16.785 70.039-0.83203 3.2266 0.24219 6.6445 2.7656 8.8203 2.5273 2.1719 6.0703 2.7227 9.1367 1.418 5.3398-2.2695 11.086-3.4297 16.887-3.4141 15.629 0 30.074 8.3398 37.887 21.875 7.8164 13.535 7.8164 30.215 0 43.75-7.8125 13.535-22.258 21.875-37.887 21.875z"/>
  <path d="m402.5 288.75h-26.25v-43.75c0-2.3203-0.92188-4.5469-2.5625-6.1875s-3.8672-2.5625-6.1875-2.5625h-35c-4.832 0-8.75 3.918-8.75 8.75v43.75h-26.25c-3.5312 0.019531-6.707 2.1562-8.0508 5.4258-1.3711 3.2578-0.64453 7.0195 1.8398 9.5352l52.5 52.5c1.6406 1.6562 3.8789 2.5898 6.2109 2.5898s4.5703-0.93359 6.2109-2.5898l52.5-52.5c2.4844-2.5156 3.2109-6.2773 1.8398-9.5352-1.3438-3.2695-4.5195-5.4062-8.0508-5.4258zm-52.5 48.914-31.414-31.414h13.914c2.3203 0 4.5469-0.92188 6.1875-2.5625s2.5625-3.8672 2.5625-6.1875v-43.75h17.5v43.75c0 2.3203 0.92188 4.5469 2.5625 6.1875s3.8672 2.5625 6.1875 2.5625h13.914z"/>
  <use x="70" y="691.25" xlink:href="#m"/>
  <use x="102.109375" y="691.25" xlink:href="#h"/>
  <use x="123.683594" y="691.25" xlink:href="#c"/>
  <use x="153.355469" y="691.25" xlink:href="#b"/>
  <use x="182.878906" y="691.25" xlink:href="#g"/>
  <use x="203.792969" y="691.25" xlink:href="#c"/>
  <use x="233.464844" y="691.25" xlink:href="#f"/>
  <use x="280.011719" y="691.25" xlink:href="#e"/>
  <use x="311.328125" y="691.25" xlink:href="#a"/>
  <use x="355.078125" y="691.25" xlink:href="#d"/>
  <use x="371.359375" y="691.25" xlink:href="#l"/>
  <use x="402.503906" y="691.25" xlink:href="#k"/>
  <use x="417.5" y="691.25" xlink:href="#j"/>
  <use x="432.496094" y="691.25" xlink:href="#i"/>
  <use x="466.355469" y="691.25" xlink:href="#a"/>
  <use x="494.875" y="691.25" xlink:href="#b"/>
 </g>
</svg>
